<?xml version="1.0" standalone="no"?>
<!DOCTYPE svg PUBLIC "-//W3C//DTD SVG 20010904//EN"
 "http://www.w3.org/TR/2001/REC-SVG-20010904/DTD/svg10.dtd">
<svg version="1.0" xmlns="http://www.w3.org/2000/svg"
 width="158.000000pt" height="157.000000pt" viewBox="0 0 158.000000 157.000000"
 preserveAspectRatio="xMidYMid meet">

<g transform="translate(0.000000,157.000000) scale(0.100000,-0.100000)"
fill="#000000" stroke="none">
<path d="M731 1090 c-93 -23 -164 -116 -163 -214 0 -69 23 -116 78 -165 l43
-38 -47 -12 c-55 -14 -152 -66 -152 -82 0 -6 14 -30 32 -53 17 -22 33 -43 34
-45 2 -1 27 9 56 23 115 56 233 56 345 -1 29 -14 54 -24 56 -22 2 2 18 23 36
47 18 23 31 49 28 56 -7 17 -117 71 -165 81 l-33 7 45 39 c58 51 80 108 74
189 -3 47 -11 69 -35 102 -51 70 -151 109 -232 88z"/>
</g>
</svg>
